<svg width="16" height="16" viewBox="0 0 16 16" fill="none" xmlns="http://www.w3.org/2000/svg">
<path fill-rule="evenodd" clip-rule="evenodd" d="M13.5 10.421V5.47502L11.5 6.18902V8.25002C11.5 8.44893 11.421 8.6397 11.2803 8.78035C11.1397 8.921 10.9489 9.00002 10.75 9.00002C10.5511 9.00002 10.3603 8.921 10.2197 8.78035C10.079 8.6397 10 8.44893 10 8.25002V6.72502L7.75 7.52902V13.617L12.527 11.825C12.8128 11.7178 13.059 11.5259 13.2329 11.2751C13.4067 11.0242 13.4999 10.7262 13.5 10.421ZM11.246 4.68702L12.846 4.11602C12.7895 4.0784 12.7311 4.04369 12.671 4.01202L9.499 2.42702C9.31453 2.33479 9.11302 2.2816 8.90707 2.27076C8.70111 2.25992 8.49513 2.29167 8.302 2.36402L7.361 2.71702L11.085 4.57902C11.145 4.60902 11.1983 4.64502 11.245 4.68702M5.444 3.43502L9.322 5.37502L7.049 6.18602L3.244 4.28302C3.316 4.24102 3.39267 4.20469 3.474 4.17402L5.444 3.43502ZM6.25 7.46402L2.5 5.58902V10.646C2.50001 10.9247 2.57767 11.1979 2.72428 11.435C2.87088 11.672 3.08063 11.8635 3.33 11.988L6.25 13.448V7.46402ZM1 5.57902C1 5.14302 1.094 4.72302 1.266 4.34302C1.29601 4.20313 1.36541 4.07475 1.466 3.97302C1.808 3.43302 2.321 3.00502 2.946 2.77002L7.777 0.96002C8.1632 0.81516 8.57512 0.751495 8.98703 0.773002C9.39894 0.79451 9.80199 0.900727 10.171 1.08502L13.343 2.67102C13.841 2.92035 14.2598 3.30338 14.5525 3.77724C14.8451 4.2511 15.0001 4.79707 15 5.35402V10.421C15 11.0318 14.8135 11.6279 14.4656 12.1299C14.1177 12.6318 13.6249 13.0157 13.053 13.23L8.225 15.04C7.83866 15.185 7.42656 15.2488 7.01447 15.2273C6.60237 15.2057 6.19915 15.0995 5.83 14.915L2.658 13.329C2.15979 13.0798 1.7408 12.6969 1.44797 12.223C1.15513 11.7491 1.00002 11.2031 1 10.646V5.57902Z" fill="black"/>
</svg>
