<svg width="16" height="16" viewBox="0 0 16 16" fill="none" xmlns="http://www.w3.org/2000/svg">
<path fill-rule="evenodd" clip-rule="evenodd" d="M7.25 2H6.5C6.23478 2 5.98043 2.10536 5.79289 2.29289C5.60536 2.48043 5.5 2.73478 5.5 3V6C5.5 6.26522 5.60536 6.51957 5.79289 6.70711C5.98043 6.89464 6.23478 7 6.5 7H9.5C9.76522 7 10.0196 6.89464 10.2071 6.70711C10.3946 6.51957 10.5 6.26522 10.5 6V3C10.5 2.73478 10.3946 2.48043 10.2071 2.29289C10.0196 2.10536 9.76522 2 9.5 2H8.75V3.75C8.75 3.94891 8.67098 4.13968 8.53033 4.28033C8.38968 4.42098 8.19891 4.5 8 4.5C7.80109 4.5 7.61032 4.42098 7.46967 4.28033C7.32902 4.13968 7.25 3.94891 7.25 3.75V2ZM6.5 0.5C5.83696 0.5 5.20107 0.763392 4.73223 1.23223C4.26339 1.70107 4 2.33696 4 3V6C4 6.356 4.074 6.694 4.208 7H3C2.6717 7 2.34661 7.06466 2.04329 7.1903C1.73998 7.31594 1.46438 7.50009 1.23223 7.73223C0.763392 8.20107 0.5 8.83696 0.5 9.5V12.5C0.5 13.163 0.763392 13.7989 1.23223 14.2678C1.46438 14.4999 1.73998 14.6841 2.04329 14.8097C2.34661 14.9353 2.6717 15 3 15H13C13.663 15 14.2989 14.7366 14.7678 14.2678C15.2366 13.7989 15.5 13.163 15.5 12.5V9.5C15.5 8.83696 15.2366 8.20107 14.7678 7.73223C14.2989 7.26339 13.663 7 13 7H11.792C11.926 6.694 12 6.356 12 6V3C12 2.6717 11.9353 2.34661 11.8097 2.04329C11.6841 1.73998 11.4999 1.46438 11.2678 1.23223C11.0356 1.00009 10.76 0.815938 10.4567 0.690301C10.1534 0.564664 9.8283 0.5 9.5 0.5H6.5ZM7.25 9.5C7.25 9.23478 7.14464 8.98043 6.95711 8.79289C6.76957 8.60536 6.51522 8.5 6.25 8.5H5.25V10.25C5.25 10.4489 5.17098 10.6397 5.03033 10.7803C4.88968 10.921 4.69891 11 4.5 11C4.30109 11 4.11032 10.921 3.96967 10.7803C3.82902 10.6397 3.75 10.4489 3.75 10.25V8.5H3C2.73478 8.5 2.48043 8.60536 2.29289 8.79289C2.10536 8.98043 2 9.23478 2 9.5V12.5C2 12.7652 2.10536 13.0196 2.29289 13.2071C2.48043 13.3946 2.73478 13.5 3 13.5H6.25C6.51522 13.5 6.76957 13.3946 6.95711 13.2071C7.14464 13.0196 7.25 12.7652 7.25 12.5V9.5ZM8.75 12.5C8.75 12.7652 8.85536 13.0196 9.04289 13.2071C9.23043 13.3946 9.48478 13.5 9.75 13.5H13C13.2652 13.5 13.5196 13.3946 13.7071 13.2071C13.8946 13.0196 14 12.7652 14 12.5V9.5C14 9.23478 13.8946 8.98043 13.7071 8.79289C13.5196 8.60536 13.2652 8.5 13 8.5H12.25V10.25C12.25 10.4489 12.171 10.6397 12.0303 10.7803C11.8897 10.921 11.6989 11 11.5 11C11.3011 11 11.1103 10.921 10.9697 10.7803C10.829 10.6397 10.75 10.4489 10.75 10.25V8.5H9.75C9.48478 8.5 9.23043 8.60536 9.04289 8.79289C8.85536 8.98043 8.75 9.23478 8.75 9.5V12.5Z" fill="black"/>
</svg>
