<svg width="16" height="16" viewBox="0 0 16 16" fill="none" xmlns="http://www.w3.org/2000/svg">
<path fill-rule="evenodd" clip-rule="evenodd" d="M4.17763 6.705C4.08692 6.59914 4.02842 6.46953 4.00904 6.33148C3.98966 6.19342 4.01022 6.05271 4.06828 5.92597C4.12633 5.79923 4.21947 5.69177 4.33667 5.61628C4.45387 5.54079 4.59023 5.50044 4.72963 5.5H11.2716C11.411 5.50044 11.5474 5.54079 11.6646 5.61628C11.7818 5.69177 11.8749 5.79923 11.933 5.92597C11.991 6.05271 12.0116 6.19342 11.9922 6.33148C11.9728 6.46953 11.9143 6.59914 11.8236 6.705L8.80063 10.214C8.7068 10.3228 8.5906 10.4102 8.45997 10.47C8.32934 10.5299 8.18734 10.5609 8.04363 10.561H7.95963C7.81593 10.5609 7.67393 10.5299 7.54329 10.47C7.41266 10.4102 7.29647 10.3228 7.20263 10.214L4.17763 6.705Z" fill="black"/>
</svg>
