<svg width="16" height="16" viewBox="0 0 16 16" fill="none" xmlns="http://www.w3.org/2000/svg">
<path fill-rule="evenodd" clip-rule="evenodd" d="M2.96983 5.46997C3.11045 5.32952 3.30108 5.25063 3.49983 5.25063C3.69858 5.25063 3.8892 5.32952 4.02983 5.46997L7.99983 9.43997L11.9698 5.46997C12.0385 5.39628 12.1213 5.33718 12.2133 5.29619C12.3053 5.2552 12.4046 5.23316 12.5053 5.23138C12.606 5.2296 12.706 5.24813 12.7994 5.28585C12.8928 5.32357 12.9776 5.37971 13.0489 5.45093C13.1201 5.52215 13.1762 5.60698 13.214 5.70037C13.2517 5.79376 13.2702 5.89379 13.2684 5.99449C13.2666 6.0952 13.2446 6.19451 13.2036 6.28651C13.1626 6.37851 13.1035 6.46131 13.0298 6.52997L8.52983 11.03C8.3892 11.1704 8.19858 11.2493 7.99983 11.2493C7.80108 11.2493 7.61045 11.1704 7.46983 11.03L2.96983 6.52997C2.82938 6.38935 2.75049 6.19872 2.75049 5.99997C2.75049 5.80122 2.82938 5.6106 2.96983 5.46997Z" fill="black"/>
</svg>
