<svg width="16" height="16" viewBox="0 0 16 16" fill="none" xmlns="http://www.w3.org/2000/svg">
<path fill-rule="evenodd" clip-rule="evenodd" d="M13.5 8C13.5 9.45869 12.9205 10.8576 11.8891 11.8891C10.8576 12.9205 9.45869 13.5 8 13.5C6.54131 13.5 5.14236 12.9205 4.11091 11.8891C3.07946 10.8576 2.5 9.45869 2.5 8C2.5 6.54131 3.07946 5.14236 4.11091 4.11091C5.14236 3.07946 6.54131 2.5 8 2.5C9.45869 2.5 10.8576 3.07946 11.8891 4.11091C12.9205 5.14236 13.5 6.54131 13.5 8ZM15 8C15 9.85652 14.2625 11.637 12.9497 12.9497C11.637 14.2625 9.85652 15 8 15C6.14348 15 4.36301 14.2625 3.05025 12.9497C1.7375 11.637 1 9.85652 1 8C1 6.14348 1.7375 4.36301 3.05025 3.05025C4.36301 1.7375 6.14348 1 8 1C9.85652 1 11.637 1.7375 12.9497 3.05025C14.2625 4.36301 15 6.14348 15 8ZM8.75 5.5C8.75 5.30109 8.67098 5.11032 8.53033 4.96967C8.38968 4.82902 8.19891 4.75 8 4.75C7.80109 4.75 7.61032 4.82902 7.46967 4.96967C7.32902 5.11032 7.25 5.30109 7.25 5.5V7.25H5.5C5.30109 7.25 5.11032 7.32902 4.96967 7.46967C4.82902 7.61032 4.75 7.80109 4.75 8C4.75 8.19891 4.82902 8.38968 4.96967 8.53033C5.11032 8.67098 5.30109 8.75 5.5 8.75H7.25V10.5C7.25 10.6989 7.32902 10.8897 7.46967 11.0303C7.61032 11.171 7.80109 11.25 8 11.25C8.19891 11.25 8.38968 11.171 8.53033 11.0303C8.67098 10.8897 8.75 10.6989 8.75 10.5V8.75H10.5C10.6989 8.75 10.8897 8.67098 11.0303 8.53033C11.171 8.38968 11.25 8.19891 11.25 8C11.25 7.80109 11.171 7.61032 11.0303 7.46967C10.8897 7.32902 10.6989 7.25 10.5 7.25H8.75V5.5Z" fill="black"/>
</svg>
