<svg width="16" height="16" viewBox="0 0 16 16" fill="none" xmlns="http://www.w3.org/2000/svg">
<path fill-rule="evenodd" clip-rule="evenodd" d="M3.02934 1.96985C2.88716 1.83737 2.69911 1.76524 2.50481 1.76867C2.31051 1.7721 2.12513 1.85081 1.98771 1.98822C1.8503 2.12564 1.77159 2.31102 1.76816 2.50532C1.76473 2.69963 1.83686 2.88767 1.96934 3.02985L2.79934 3.85985C1.8075 4.67162 1.01976 5.70458 0.499336 6.87585L0.239336 7.46085C0.163949 7.63072 0.125 7.8145 0.125 8.00035C0.125 8.18619 0.163949 8.36998 0.239336 8.53985L0.499336 9.12485C0.96028 10.1611 1.63092 11.0906 2.46896 11.8547C3.30701 12.6188 4.29428 13.2011 5.36854 13.5647C6.4428 13.9283 7.58074 14.0654 8.71062 13.9673C9.84049 13.8692 10.9378 13.5381 11.9333 12.9948L12.9693 14.0298C13.038 14.1035 13.1208 14.1626 13.2128 14.2036C13.3048 14.2446 13.4041 14.2667 13.5048 14.2684C13.6055 14.2702 13.7055 14.2517 13.7989 14.214C13.8923 14.1762 13.9772 14.1201 14.0484 14.0489C14.1196 13.9777 14.1757 13.8928 14.2135 13.7994C14.2512 13.7061 14.2697 13.606 14.2679 13.5053C14.2662 13.4046 14.2441 13.3053 14.2031 13.2133C14.1621 13.1213 14.103 13.0385 14.0293 12.9698L3.02934 1.96985ZM10.8173 11.8778L9.52334 10.5848C8.9503 10.9235 8.28092 11.0619 7.62057 10.9784C6.96023 10.8949 6.34641 10.5941 5.87575 10.1234C5.40509 9.65278 5.10432 9.03896 5.02079 8.37861C4.93725 7.71826 5.0757 7.04888 5.41434 6.47585L3.86534 4.92685C3.00034 5.60338 2.3149 6.48216 1.86934 7.48585L1.64034 7.99985L1.87034 8.51485C2.23184 9.32745 2.75128 10.0601 3.39846 10.6701C4.04564 11.2802 4.80764 11.7555 5.64016 12.0684C6.47268 12.3814 7.3591 12.5257 8.24788 12.4929C9.13667 12.4602 10.0101 12.2511 10.8173 11.8778ZM6.54934 7.61085C6.48127 7.86542 6.48137 8.13343 6.54965 8.38795C6.61792 8.64247 6.75195 8.87456 6.93829 9.06089C7.12463 9.24723 7.35671 9.38126 7.61123 9.44954C7.86575 9.51781 8.13376 9.51791 8.38834 9.44985L6.54934 7.61085ZM8.20734 5.00685L10.9913 7.79085C10.941 7.0691 10.6315 6.38985 10.1199 5.87826C9.60833 5.36666 8.92909 5.05719 8.20734 5.00685ZM14.1273 8.51485C13.8892 9.05145 13.5816 9.55442 13.2123 10.0108L14.2773 11.0768C14.7745 10.4869 15.1859 9.82976 15.4993 9.12485L15.7593 8.53985C15.8349 8.36984 15.8739 8.18588 15.8739 7.99985C15.8739 7.81382 15.8349 7.62985 15.7593 7.45985L15.4993 6.87585C14.6826 5.03999 13.221 3.5674 11.3913 2.73696C9.56159 1.90652 7.49088 1.7759 5.57134 2.36985L6.80934 3.60985C8.28733 3.34373 9.81188 3.58111 11.139 4.28401C12.4661 4.98691 13.5191 6.11468 14.1293 7.48685L14.3573 8.00085L14.1273 8.51485Z" fill="#16215B"/>
</svg>
