<svg width="16" height="16" viewBox="0 0 16 16" fill="none" xmlns="http://www.w3.org/2000/svg">
<path fill-rule="evenodd" clip-rule="evenodd" d="M11.4229 1C12.3716 1 13.2814 1.37686 13.9522 2.04768C14.623 2.7185 14.9999 3.62832 14.9999 4.577C14.9999 4.847 14.8919 5.107 14.6999 5.299L14.1719 5.828L12.2009 7.799L7.14191 12.858C6.72305 13.2767 6.18964 13.562 5.60891 13.678L2.97091 14.206C2.80943 14.2384 2.64245 14.2303 2.48482 14.1826C2.32718 14.1349 2.18376 14.0491 2.06731 13.9326C1.95085 13.8161 1.86496 13.6727 1.81727 13.5151C1.76957 13.3575 1.76155 13.1905 1.79391 13.029L2.32191 10.391C2.43794 9.81026 2.72326 9.27686 3.14191 8.858L8.20091 3.799L10.7009 1.299C10.8919 1.108 11.1519 1 11.4229 1ZM9.11291 5.009L4.20291 9.919C3.99367 10.1283 3.85102 10.3948 3.79291 10.685L3.41291 12.588L5.31491 12.208C5.60546 12.1501 5.87234 12.0074 6.08191 11.798L10.9919 6.888C10.9473 6.40446 10.7349 5.95178 10.3915 5.60841C10.0481 5.26504 9.59545 5.05264 9.11191 5.008M12.2099 5.666C11.8464 4.82315 11.1746 4.151 10.3319 3.787L11.6119 2.507C12.6069 2.597 13.3999 3.391 13.4899 4.387L12.2099 5.666Z" fill="black"/>
</svg>
