<svg width="16" height="16" viewBox="0 0 16 16" fill="none" xmlns="http://www.w3.org/2000/svg">
<path fill-rule="evenodd" clip-rule="evenodd" d="M11.4994 6.9999C11.4994 7.59085 11.383 8.17601 11.1569 8.72197C10.9307 9.26794 10.5993 9.76401 10.1814 10.1819C9.76353 10.5997 9.26745 10.9312 8.72148 11.1574C8.17552 11.3835 7.59036 11.4999 6.99941 11.4999C6.40846 11.4999 5.8233 11.3835 5.27733 11.1574C4.73137 10.9312 4.23529 10.5997 3.81743 10.1819C3.39956 9.76401 3.0681 9.26794 2.84195 8.72197C2.6158 8.17601 2.49941 7.59085 2.49941 6.9999C2.49941 5.80642 2.97351 4.66183 3.81743 3.81792C4.66134 2.974 5.80593 2.4999 6.99941 2.4999C8.19288 2.4999 9.33747 2.974 10.1814 3.81792C11.0253 4.66183 11.4994 5.80642 11.4994 6.9999ZM10.6794 11.7399C9.47379 12.6759 7.95678 13.1172 6.43721 12.974C4.91764 12.8309 3.50975 12.114 2.50016 10.9693C1.49056 9.82461 0.95516 8.3382 1.00294 6.81265C1.05073 5.2871 1.67811 3.8371 2.75736 2.75785C3.83662 1.6786 5.28661 1.05122 6.81216 1.00343C8.33771 0.955648 9.82412 1.49105 10.9688 2.50065C12.1135 3.51024 12.8304 4.91813 12.9735 6.4377C13.1167 7.95726 12.6754 9.47427 11.7394 10.6799L14.5294 13.4699C14.6031 13.5386 14.6622 13.6214 14.7032 13.7134C14.7442 13.8054 14.7662 13.9047 14.768 14.0054C14.7698 14.1061 14.7513 14.2061 14.7135 14.2995C14.6758 14.3929 14.6197 14.4777 14.5484 14.5489C14.4772 14.6202 14.3924 14.6763 14.299 14.714C14.2056 14.7517 14.1056 14.7703 14.0049 14.7685C13.9042 14.7667 13.8049 14.7447 13.7129 14.7037C13.6209 14.6627 13.5381 14.6036 13.4694 14.5299L10.6794 11.7399Z" fill="#6B6B6B"/>
</svg>
